<?xml version="1.0" standalone="no"?>
<!DOCTYPE svg PUBLIC "-//W3C//DTD SVG 20010904//EN"
 "http://www.w3.org/TR/2001/REC-SVG-20010904/DTD/svg10.dtd">
<svg version="1.0" xmlns="http://www.w3.org/2000/svg"
 width="512.000000pt" height="512.000000pt" viewBox="0 0 512.000000 512.000000"
 preserveAspectRatio="xMidYMid meet">

<g transform="translate(0.000000,512.000000) scale(0.100000,-0.100000)"
fill="#000000" stroke="none">
<path d="M801 4832 c-719 -317 -711 -313 -711 -396 0 -29 53 -161 207 -514
176 -401 213 -478 240 -499 61 -47 77 -42 551 166 238 105 437 191 441 191 25
0 125 -292 170 -495 28 -125 57 -339 76 -545 13 -147 19 -183 41 -227 48 -98
144 -158 254 -157 112 1 207 59 255 158 52 106 34 203 -110 591 -151 403 -314
702 -507 927 -55 64 -58 70 -58 121 0 102 6 115 71 147 31 16 60 34 63 39 4 5
15 51 26 103 l19 93 -117 268 c-127 292 -134 303 -214 312 -39 4 -98 -19 -697
-283z"/>
<path d="M3575 4394 c-16 -8 -35 -21 -42 -27 -6 -7 -64 -131 -127 -276 l-116
-263 23 -101 22 -100 60 -33 c68 -38 73 -47 74 -152 l1 -74 -60 -66 c-257
-280 -494 -757 -655 -1315 l-16 -57 -882 0 c-595 0 -895 -4 -921 -11 -50 -14
-118 -82 -134 -135 -34 -113 11 -424 91 -631 98 -254 260 -489 447 -649 l80
-69 -52 -11 c-124 -25 -188 -97 -188 -213 0 -62 10 -89 52 -136 70 -80 -21
-75 1203 -75 l1090 0 51 24 c111 52 153 173 99 283 -32 64 -83 100 -162 115
l-60 11 56 47 c350 296 567 747 572 1188 1 110 -11 149 -57 196 -63 63 -78 66
-411 66 -167 0 -303 4 -303 9 0 40 35 330 51 426 24 143 48 240 94 381 42 128
124 324 135 324 5 0 204 -85 443 -190 461 -202 482 -208 543 -171 36 22 22 -7
263 542 147 337 191 446 191 478 0 82 2 81 -717 395 -359 158 -665 286 -680
286 -16 0 -41 -7 -58 -16z"/>
</g>
</svg>
